    <svg xmlns="http://www.w3.org/2000/svg" version="1.1" xmlns:xlink="http://www.w3.org/1999/xlink" width="20" height="20" viewBox="0 0 256 256"  xml:space="preserve" class="hovered-paths"><g><path fill="#fc4f4f" d="M198 32.5c-3.4-1.1-7-1.8-10.7-2.2-47.2-4.8-59.3 40.2-59.3 40.2s-12.1-45-59.2-40.2C25 34.7 2 89.9 30.7 136.3c8.2 13.3 21 27.6 34.7 40.9 27.5 26.7 58.5 48.9 62.6 48.9 6.2 0 72.5-49.7 97.3-89.7C251.6 93.9 234.6 44 198 32.5z" opacity="1" data-original="#fc4f4f" class="hovered-path"></path><path d="M225.3 136.3C251.6 93.9 234.6 44 198 32.5c0 0 36.5 35.2 15.5 71.4s-91.2 81.2-101.1 82.8c-8.2 1.3-29-.6-47-9.4 27.5 26.7 58.5 48.9 62.6 48.9 6.2-.1 72.5-49.8 97.3-89.9z" opacity="1" fill="#00000015" data-original="#00000015" class=""></path><ellipse cx="50.6" cy="65.5" fill="#fff" opacity=".3" rx="24.9" ry="12.6" transform="rotate(-49.83 50.593 65.492)"></ellipse></g></svg>
